<svg width="900" height="600" viewBox="0 0 900 600" fill="none" xmlns="http://www.w3.org/2000/svg">
  <rect width="900" height="600" rx="32" fill="#F9FBFF"/>
  <rect x="44" y="44" width="812" height="88" rx="22" fill="#FFFFFF"/>
  <rect x="72" y="76" width="160" height="24" rx="12" fill="#1A56DB"/>
  <rect x="72" y="114" width="420" height="16" rx="8" fill="#DCE9FF"/>

  <g opacity="0.95">
    <rect x="110" y="220" width="100" height="244" rx="20" fill="#1A56DB"/>
    <rect x="230" y="264" width="100" height="200" rx="20" fill="#4F8CFF"/>
    <rect x="350" y="180" width="100" height="284" rx="20" fill="#7AA8FF"/>
    <rect x="470" y="296" width="100" height="168" rx="20" fill="#B0C7FF"/>
    <rect x="590" y="248" width="100" height="216" rx="20" fill="#D6E6FF"/>
  </g>
  <line x1="90" y1="520" x2="810" y2="520" stroke="#CBD5E1" stroke-width="2" stroke-linecap="round"/>
  <circle cx="110" cy="520" r="6" fill="#1A56DB"/>
  <circle cx="230" cy="520" r="6" fill="#1A56DB"/>
  <circle cx="350" cy="520" r="6" fill="#1A56DB"/>
  <circle cx="470" cy="520" r="6" fill="#1A56DB"/>
  <circle cx="590" cy="520" r="6" fill="#1A56DB"/>
  
  <!-- Y axis labels -->
  <g fill="#475569" font-family="Space Mono, monospace" font-size="13" text-anchor="end">
    <text x="78" y="520">0</text>
    <text x="78" y="452">50</text>
    <text x="78" y="384">100</text>
    <text x="78" y="316">150</text>
    <text x="78" y="248">200</text>
  </g>

  <!-- X labels -->
  <g fill="#475569" font-family="Space Mono, monospace" font-size="12" text-anchor="middle">
    <text x="160" y="552">A</text>
    <text x="280" y="552">B</text>
    <text x="400" y="552">C</text>
    <text x="520" y="552">D</text>
    <text x="640" y="552">E</text>
  </g>
</svg>