<svg width="900" height="600" viewBox="0 0 900 600" fill="none" xmlns="http://www.w3.org/2000/svg">
  <rect width="900" height="600" rx="32" fill="#F9FBFF"/>
  <rect x="44" y="44" width="812" height="88" rx="22" fill="#FFFFFF"/>
  <rect x="72" y="76" width="160" height="24" rx="12" fill="#1A56DB"/>
  <rect x="72" y="114" width="420" height="16" rx="8" fill="#DCE9FF"/>

  <rect x="80" y="220" width="340" height="250" rx="24" fill="#FFFFFF"/>
  <rect x="100" y="248" width="220" height="18" rx="9" fill="#E2E8F0"/>
  <rect x="100" y="280" width="180" height="18" rx="9" fill="#DBEAFE"/>
  <rect x="100" y="316" width="240" height="18" rx="9" fill="#EAF1FF"/>
  <rect x="100" y="352" width="140" height="18" rx="9" fill="#DCE9FF"/>
  <rect x="100" y="388" width="120" height="18" rx="9" fill="#B0C7FF"/>

  <rect x="440" y="220" width="340" height="250" rx="24" fill="#FFFFFF"/>
  <circle cx="520" cy="320" r="72" fill="#1A56DB" opacity="0.1"/>
  <circle cx="640" cy="320" r="58" fill="#1A56DB" opacity="0.2"/>
  <circle cx="615" cy="320" r="36" fill="#1A56DB"/>
  <rect x="480" y="420" width="220" height="16" rx="8" fill="#DCE9FF"/>
  <rect x="480" y="448" width="160" height="16" rx="8" fill="#EAF1FF"/>

  <line x1="80" y1="496" x2="820" y2="496" stroke="#E2E8F0" stroke-width="4" stroke-linecap="round"/>
  
  <!-- Numbers for metric bars -->
  <g fill="#1A56DB" font-family="Space Mono, monospace" font-size="13">
    <text x="330" y="262">240</text>
    <text x="330" y="294">180</text>
    <text x="330" y="330">200</text>
    <text x="330" y="366">140</text>
    <text x="330" y="402">120</text>
  </g>

  <!-- Donut percentages -->
  <g fill="#475569" font-family="Space Mono, monospace" font-size="14" text-anchor="middle">
    <text x="615" y="320" fill="#1A56DB" font-weight="700">45%</text>
    <text x="615" y="350">30% / 25%</text>
  </g>
</svg>