<svg width="900" height="600" viewBox="0 0 900 600" fill="none" xmlns="http://www.w3.org/2000/svg">
  <rect width="900" height="600" rx="32" fill="#F9FBFF"/>
  <rect x="44" y="44" width="812" height="88" rx="22" fill="#FFFFFF"/>
  <rect x="72" y="76" width="180" height="24" rx="12" fill="#1A56DB"/>
  <rect x="72" y="114" width="460" height="16" rx="8" fill="#DCE9FF"/>
  <path d="M80 208C140 190 200 220 260 184C320 148 380 220 440 196C500 172 560 228 620 210C680 192 740 238 800 214" stroke="#1A56DB" stroke-width="16" stroke-linecap="round" stroke-linejoin="round"/>
  <circle cx="80" cy="208" r="14" fill="#1A56DB"/>
  <circle cx="260" cy="184" r="14" fill="#1A56DB"/>
  <circle cx="440" cy="196" r="14" fill="#1A56DB"/>
  <circle cx="620" cy="210" r="14" fill="#1A56DB"/>
  <circle cx="800" cy="214" r="14" fill="#1A56DB"/>
  <rect x="68" y="270" width="764" height="264" rx="24" fill="url(#gradient)"/>

  <!-- Y axis ticks & labels -->
  <g fill="#475569" font-family="Space Mono, monospace" font-size="13" text-anchor="end">
    <text x="60" y="288">100</text>
    <text x="60" y="328">80</text>
    <text x="60" y="368">60</text>
    <text x="60" y="408">40</text>
    <text x="60" y="448">20</text>
    <text x="60" y="520">0</text>
  </g>
  <g stroke="#E6EEF9" stroke-width="1">
    <line x1="68" y1="296" x2="832" y2="296" />
    <line x1="68" y1="336" x2="832" y2="336" />
    <line x1="68" y1="376" x2="832" y2="376" />
    <line x1="68" y1="416" x2="832" y2="416" />
    <line x1="68" y1="456" x2="832" y2="456" />
  </g>

  <!-- X axis labels -->
  <g fill="#475569" font-family="Space Mono, monospace" font-size="12" text-anchor="middle">
    <text x="80" y="556">Jan</text>
    <text x="260" y="556">Mar</text>
    <text x="440" y="556">May</text>
    <text x="620" y="556">Jul</text>
    <text x="800" y="556">Sep</text>
  </g>
  <defs>
    <linearGradient id="gradient" x1="450" y1="270" x2="450" y2="534" gradientUnits="userSpaceOnUse">
      <stop offset="0" stop-color="#DBEAFE" stop-opacity="0.9"/>
      <stop offset="1" stop-color="#FFFFFF" stop-opacity="0.4"/>
    </linearGradient>
  </defs>
</svg>