<svg width="1200" height="800" viewBox="0 0 1200 800" fill="none" xmlns="http://www.w3.org/2000/svg">
  <rect width="1200" height="800" rx="48" fill="#F7FAFF"/>
  <rect x="60" y="60" width="1080" height="120" rx="28" fill="#FFFFFF"/>
  <rect x="88" y="90" width="240" height="24" rx="12" fill="#1A56DB"/>
  <rect x="88" y="134" width="520" height="16" rx="8" fill="#DCE9FF"/>
  <rect x="88" y="166" width="420" height="16" rx="8" fill="#E9F2FF"/>

  <rect x="60" y="220" width="520" height="520" rx="32" fill="#FFFFFF"/>
  <rect x="84" y="252" width="440" height="28" rx="14" fill="#E8EEFF"/>
  <g opacity="0.95">
    <path d="M120 320C220 260 300 340 390 320C480 300 560 360 660 320C760 280 840 360 930 300" stroke="#1A56DB" stroke-width="16" stroke-linecap="round" stroke-linejoin="round"/>
    <circle cx="120" cy="320" r="12" fill="#1A56DB"/>
    <circle cx="390" cy="320" r="12" fill="#1A56DB"/>
    <circle cx="660" cy="320" r="12" fill="#1A56DB"/>
    <circle cx="930" cy="300" r="12" fill="#1A56DB"/>
  </g>
  
  <!-- mini axis labels -->
  <g fill="#475569" font-family="Space Mono, monospace" font-size="12" text-anchor="end">
    <text x="72" y="300">75</text>
    <text x="72" y="360">50</text>
    <text x="72" y="420">25</text>
    <text x="72" y="520">0</text>
  </g>
  <rect x="84" y="450" width="420" height="16" rx="8" fill="#DCE9FF"/>
  <rect x="84" y="486" width="320" height="16" rx="8" fill="#E9F2FF"/>

  <rect x="645" y="220" width="495" height="252" rx="32" fill="#FFFFFF"/>
  <rect x="669" y="252" width="212" height="20" rx="10" fill="#E8EEFF"/>
  <rect x="669" y="292" width="220" height="16" rx="8" fill="#DCE9FF"/>
  <rect x="669" y="328" width="260" height="16" rx="8" fill="#E9F2FF"/>
  <rect x="669" y="364" width="180" height="16" rx="8" fill="#DCE9FF"/>
  <rect x="669" y="410" width="450" height="10" rx="5" fill="#EAF1FF"/>
  <rect x="669" y="430" width="160" height="10" rx="5" fill="#DCE9FF"/>
  <rect x="669" y="458" width="140" height="10" rx="5" fill="#DCE9FF"/>

  <rect x="645" y="496" width="495" height="244" rx="32" fill="#FFFFFF"/>
  <rect x="669" y="532" width="320" height="24" rx="12" fill="#E8EEFF"/>
  <rect x="669" y="572" width="420" height="16" rx="8" fill="#DCE9FF"/>
  <rect x="669" y="604" width="160" height="16" rx="8" fill="#E9F2FF"/>
  <rect x="669" y="640" width="420" height="20" rx="10" fill="#DCE9FF"/>
  <rect x="669" y="678" width="320" height="20" rx="10" fill="#E9F2FF"/>

  <rect x="64" y="62" width="1108" height="118" rx="28" stroke="#E2E8F0" stroke-width="2"/>
  <rect x="64" y="218" width="520" height="520" rx="32" stroke="#E2E8F0" stroke-width="2"/>
  <rect x="645" y="220" width="495" height="252" rx="32" stroke="#E2E8F0" stroke-width="2"/>
  <rect x="645" y="496" width="495" height="244" rx="32" stroke="#E2E8F0" stroke-width="2"/>
</svg>